<mxfile host="app.diagrams.net" agent="Mozilla/5.0 (Windows NT 10.0; Win64; x64) AppleWebKit/537.36 (KHTML, like Gecko) Chrome/138.0.0.0 Safari/537.36" version="27.1.6">
  <diagram name="Página-1" id="bUz74yoLnu7ht94QflnF">
    <mxGraphModel grid="1" page="1" gridSize="10" guides="1" tooltips="1" connect="1" arrows="1" fold="1" pageScale="1" pageWidth="827" pageHeight="1169" math="0" shadow="0">
      <root>
        <mxCell id="0" />
        <mxCell id="1" parent="0" />
        <mxCell id="94_enlfXILWbWIfnMd43-1" value="" style="rounded=0;whiteSpace=wrap;html=1;" vertex="1" parent="1">
          <mxGeometry x="120" y="60" width="120" height="60" as="geometry" />
        </mxCell>
        <mxCell id="94_enlfXILWbWIfnMd43-2" value="" style="rounded=0;whiteSpace=wrap;html=1;" vertex="1" parent="1">
          <mxGeometry x="380" y="60" width="120" height="60" as="geometry" />
        </mxCell>
        <mxCell id="94_enlfXILWbWIfnMd43-3" value="" style="rounded=0;whiteSpace=wrap;html=1;" vertex="1" parent="1">
          <mxGeometry x="640" y="60" width="120" height="60" as="geometry" />
        </mxCell>
        <mxCell id="94_enlfXILWbWIfnMd43-4" value="" style="endArrow=none;dashed=1;html=1;rounded=0;entryX=0.5;entryY=1;entryDx=0;entryDy=0;" edge="1" parent="1" target="94_enlfXILWbWIfnMd43-1">
          <mxGeometry width="50" height="50" relative="1" as="geometry">
            <mxPoint x="180" y="290" as="sourcePoint" />
            <mxPoint x="450" y="490" as="targetPoint" />
            <Array as="points" />
          </mxGeometry>
        </mxCell>
        <mxCell id="94_enlfXILWbWIfnMd43-5" value="" style="endArrow=none;dashed=1;html=1;rounded=0;entryX=0.5;entryY=1;entryDx=0;entryDy=0;" edge="1" parent="1" source="94_enlfXILWbWIfnMd43-13">
          <mxGeometry width="50" height="50" relative="1" as="geometry">
            <mxPoint x="439" y="880" as="sourcePoint" />
            <mxPoint x="439" y="120" as="targetPoint" />
            <Array as="points" />
          </mxGeometry>
        </mxCell>
        <mxCell id="94_enlfXILWbWIfnMd43-6" value="" style="endArrow=none;dashed=1;html=1;rounded=0;entryX=0.5;entryY=1;entryDx=0;entryDy=0;" edge="1" parent="1" source="WivK-WyK2wc_ODXAfpbZ-1">
          <mxGeometry width="50" height="50" relative="1" as="geometry">
            <mxPoint x="699" y="440" as="sourcePoint" />
            <mxPoint x="699" y="120" as="targetPoint" />
            <Array as="points" />
          </mxGeometry>
        </mxCell>
        <mxCell id="94_enlfXILWbWIfnMd43-7" value="" style="endArrow=classic;html=1;rounded=0;" edge="1" parent="1">
          <mxGeometry width="50" height="50" relative="1" as="geometry">
            <mxPoint x="190" y="180" as="sourcePoint" />
            <mxPoint x="440" y="180" as="targetPoint" />
            <Array as="points">
              <mxPoint x="250" y="180" />
            </Array>
          </mxGeometry>
        </mxCell>
        <mxCell id="94_enlfXILWbWIfnMd43-8" value="1. Acceder a la galería de eventos" style="text;strokeColor=none;fillColor=none;align=left;verticalAlign=middle;spacingLeft=4;spacingRight=4;overflow=hidden;points=[[0,0.5],[1,0.5]];portConstraint=eastwest;rotatable=0;whiteSpace=wrap;html=1;" vertex="1" parent="1">
          <mxGeometry x="214" y="150" width="200" height="30" as="geometry" />
        </mxCell>
        <mxCell id="94_enlfXILWbWIfnMd43-14" value="" style="endArrow=none;dashed=1;html=1;rounded=0;entryX=0.5;entryY=1;entryDx=0;entryDy=0;" edge="1" parent="1" source="WivK-WyK2wc_ODXAfpbZ-3" target="94_enlfXILWbWIfnMd43-13">
          <mxGeometry width="50" height="50" relative="1" as="geometry">
            <mxPoint x="440" y="310" as="sourcePoint" />
            <mxPoint x="439" y="120" as="targetPoint" />
            <Array as="points" />
          </mxGeometry>
        </mxCell>
        <mxCell id="94_enlfXILWbWIfnMd43-13" value="" style="html=1;points=[[0,0,0,0,5],[0,1,0,0,-5],[1,0,0,0,5],[1,1,0,0,-5]];perimeter=orthogonalPerimeter;outlineConnect=0;targetShapes=umlLifeline;portConstraint=eastwest;newEdgeStyle={&quot;curved&quot;:0,&quot;rounded&quot;:0};" vertex="1" parent="1">
          <mxGeometry x="435" y="180" width="10" height="30" as="geometry" />
        </mxCell>
        <mxCell id="94_enlfXILWbWIfnMd43-16" value="" style="endArrow=none;dashed=1;html=1;rounded=0;entryX=0.5;entryY=1;entryDx=0;entryDy=0;" edge="1" parent="1" source="94_enlfXILWbWIfnMd43-222">
          <mxGeometry width="50" height="50" relative="1" as="geometry">
            <mxPoint x="180" y="390" as="sourcePoint" />
            <mxPoint x="180" y="280" as="targetPoint" />
            <Array as="points" />
          </mxGeometry>
        </mxCell>
        <mxCell id="94_enlfXILWbWIfnMd43-21" value="" style="endArrow=none;dashed=1;html=1;rounded=0;entryX=0.5;entryY=1;entryDx=0;entryDy=0;" edge="1" parent="1" source="94_enlfXILWbWIfnMd43-232">
          <mxGeometry width="50" height="50" relative="1" as="geometry">
            <mxPoint x="440" y="560" as="sourcePoint" />
            <mxPoint x="440" y="330" as="targetPoint" />
            <Array as="points" />
          </mxGeometry>
        </mxCell>
        <mxCell id="94_enlfXILWbWIfnMd43-24" value="Administrador" style="text;strokeColor=none;fillColor=none;align=left;verticalAlign=middle;spacingLeft=4;spacingRight=4;overflow=hidden;points=[[0,0.5],[1,0.5]];portConstraint=eastwest;rotatable=0;whiteSpace=wrap;html=1;" vertex="1" parent="1">
          <mxGeometry x="140" y="75" width="150" height="30" as="geometry" />
        </mxCell>
        <mxCell id="94_enlfXILWbWIfnMd43-25" value="&lt;font style=&quot;vertical-align: inherit;&quot;&gt;&lt;font style=&quot;vertical-align: inherit;&quot;&gt;Sistema&lt;/font&gt;&lt;/font&gt;" style="text;strokeColor=none;fillColor=none;align=left;verticalAlign=middle;spacingLeft=4;spacingRight=4;overflow=hidden;points=[[0,0.5],[1,0.5]];portConstraint=eastwest;rotatable=0;whiteSpace=wrap;html=1;" vertex="1" parent="1">
          <mxGeometry x="414" y="75" width="150" height="30" as="geometry" />
        </mxCell>
        <mxCell id="94_enlfXILWbWIfnMd43-26" value="&lt;font style=&quot;vertical-align: inherit;&quot;&gt;&lt;font style=&quot;vertical-align: inherit;&quot;&gt;Base de Datos&lt;/font&gt;&lt;/font&gt;" style="text;strokeColor=none;fillColor=none;align=left;verticalAlign=middle;spacingLeft=4;spacingRight=4;overflow=hidden;points=[[0,0.5],[1,0.5]];portConstraint=eastwest;rotatable=0;whiteSpace=wrap;html=1;" vertex="1" parent="1">
          <mxGeometry x="650" y="75" width="100" height="30" as="geometry" />
        </mxCell>
        <mxCell id="94_enlfXILWbWIfnMd43-28" value="8. Mostrar comentarios" style="text;strokeColor=none;fillColor=none;align=center;verticalAlign=middle;spacingLeft=4;spacingRight=4;overflow=hidden;points=[[0,0.5],[1,0.5]];portConstraint=eastwest;rotatable=0;whiteSpace=wrap;html=1;" vertex="1" parent="1">
          <mxGeometry x="235" y="510" width="140" height="30" as="geometry" />
        </mxCell>
        <mxCell id="94_enlfXILWbWIfnMd43-36" value="" style="endArrow=none;dashed=1;html=1;rounded=0;entryX=0.5;entryY=1;entryDx=0;entryDy=0;" edge="1" parent="1" source="94_enlfXILWbWIfnMd43-247">
          <mxGeometry width="50" height="50" relative="1" as="geometry">
            <mxPoint x="700" y="450" as="sourcePoint" />
            <mxPoint x="700" y="430" as="targetPoint" />
            <Array as="points" />
          </mxGeometry>
        </mxCell>
        <mxCell id="94_enlfXILWbWIfnMd43-135" value="3. Enviar datos" style="text;strokeColor=none;fillColor=none;align=left;verticalAlign=middle;spacingLeft=4;spacingRight=4;overflow=hidden;points=[[0,0.5],[1,0.5]];portConstraint=eastwest;rotatable=0;whiteSpace=wrap;html=1;" vertex="1" parent="1">
          <mxGeometry x="535" y="260" width="105" height="30" as="geometry" />
        </mxCell>
        <mxCell id="94_enlfXILWbWIfnMd43-141" value="" style="endArrow=none;dashed=1;html=1;rounded=0;entryX=0.5;entryY=1;entryDx=0;entryDy=0;" edge="1" parent="1" source="94_enlfXILWbWIfnMd43-222">
          <mxGeometry width="50" height="50" relative="1" as="geometry">
            <mxPoint x="180" y="620" as="sourcePoint" />
            <mxPoint x="180" y="380" as="targetPoint" />
            <Array as="points" />
          </mxGeometry>
        </mxCell>
        <mxCell id="94_enlfXILWbWIfnMd43-155" value="4. Mostrar galería&amp;nbsp;" style="text;strokeColor=none;fillColor=none;align=left;verticalAlign=middle;spacingLeft=4;spacingRight=4;overflow=hidden;points=[[0,0.5],[1,0.5]];portConstraint=eastwest;rotatable=0;whiteSpace=wrap;html=1;" vertex="1" parent="1">
          <mxGeometry x="256.5" y="290" width="115" height="30" as="geometry" />
        </mxCell>
        <mxCell id="94_enlfXILWbWIfnMd43-219" value="" style="html=1;verticalAlign=bottom;endArrow=open;endSize=8;curved=0;rounded=0;fontSize=12;entryX=1;entryY=0;entryDx=0;entryDy=5;entryPerimeter=0;align=left;" edge="1" parent="1" target="WivK-WyK2wc_ODXAfpbZ-3">
          <mxGeometry x="0.0526" relative="1" as="geometry">
            <mxPoint x="700" y="285" as="sourcePoint" />
            <mxPoint x="440" y="290" as="targetPoint" />
            <mxPoint as="offset" />
          </mxGeometry>
        </mxCell>
        <mxCell id="94_enlfXILWbWIfnMd43-220" value="" style="endArrow=none;dashed=1;html=1;rounded=0;entryX=0.5;entryY=1;entryDx=0;entryDy=0;" edge="1" parent="1" source="94_enlfXILWbWIfnMd43-247" target="94_enlfXILWbWIfnMd43-146">
          <mxGeometry width="50" height="50" relative="1" as="geometry">
            <mxPoint x="700" y="680" as="sourcePoint" />
            <mxPoint x="699" y="120" as="targetPoint" />
            <Array as="points" />
          </mxGeometry>
        </mxCell>
        <mxCell id="94_enlfXILWbWIfnMd43-146" value="" style="html=1;points=[[0,0,0,0,5],[0,1,0,0,-5],[1,0,0,0,5],[1,1,0,0,-5]];perimeter=orthogonalPerimeter;outlineConnect=0;targetShapes=umlLifeline;portConstraint=eastwest;newEdgeStyle={&quot;curved&quot;:0,&quot;rounded&quot;:0};" vertex="1" parent="1">
          <mxGeometry x="695" y="340" width="10" height="30" as="geometry" />
        </mxCell>
        <mxCell id="94_enlfXILWbWIfnMd43-223" value="" style="endArrow=none;dashed=1;html=1;rounded=0;entryX=0.5;entryY=1;entryDx=0;entryDy=0;" edge="1" parent="1" source="94_enlfXILWbWIfnMd43-254" target="94_enlfXILWbWIfnMd43-222">
          <mxGeometry width="50" height="50" relative="1" as="geometry">
            <mxPoint x="178" y="670" as="sourcePoint" />
            <mxPoint x="180" y="380" as="targetPoint" />
            <Array as="points" />
          </mxGeometry>
        </mxCell>
        <mxCell id="94_enlfXILWbWIfnMd43-225" value="2. Obtener eventos y comentarios" style="text;strokeColor=none;fillColor=none;align=left;verticalAlign=middle;spacingLeft=4;spacingRight=4;overflow=hidden;points=[[0,0.5],[1,0.5]];portConstraint=eastwest;rotatable=0;whiteSpace=wrap;html=1;" vertex="1" parent="1">
          <mxGeometry x="480" y="190" width="190" height="30" as="geometry" />
        </mxCell>
        <mxCell id="94_enlfXILWbWIfnMd43-227" value="" style="endArrow=none;dashed=1;html=1;rounded=0;entryX=0.5;entryY=1;entryDx=0;entryDy=0;" edge="1" parent="1">
          <mxGeometry width="50" height="50" relative="1" as="geometry">
            <mxPoint x="440" y="330" as="sourcePoint" />
            <mxPoint x="440" y="310" as="targetPoint" />
            <Array as="points" />
          </mxGeometry>
        </mxCell>
        <mxCell id="94_enlfXILWbWIfnMd43-229" value="" style="endArrow=classic;html=1;rounded=0;" edge="1" parent="1">
          <mxGeometry width="50" height="50" relative="1" as="geometry">
            <mxPoint x="450" y="230" as="sourcePoint" />
            <mxPoint x="695" y="230" as="targetPoint" />
            <Array as="points">
              <mxPoint x="465" y="230" />
              <mxPoint x="505" y="230" />
            </Array>
          </mxGeometry>
        </mxCell>
        <mxCell id="94_enlfXILWbWIfnMd43-230" value="" style="endArrow=classic;html=1;rounded=0;" edge="1" parent="1">
          <mxGeometry width="50" height="50" relative="1" as="geometry">
            <mxPoint x="575" y="490" as="sourcePoint" />
            <mxPoint x="445" y="490" as="targetPoint" />
            <Array as="points">
              <mxPoint x="705" y="490" />
            </Array>
          </mxGeometry>
        </mxCell>
        <mxCell id="94_enlfXILWbWIfnMd43-231" value="7. Enviar contratos" style="text;strokeColor=none;fillColor=none;align=center;verticalAlign=middle;spacingLeft=4;spacingRight=4;overflow=hidden;points=[[0,0.5],[1,0.5]];portConstraint=eastwest;rotatable=0;whiteSpace=wrap;html=1;" vertex="1" parent="1">
          <mxGeometry x="517.5" y="460" width="115" height="30" as="geometry" />
        </mxCell>
        <mxCell id="94_enlfXILWbWIfnMd43-233" value="" style="endArrow=none;dashed=1;html=1;rounded=0;entryX=0.5;entryY=1;entryDx=0;entryDy=0;" edge="1" parent="1" source="94_enlfXILWbWIfnMd43-250" target="94_enlfXILWbWIfnMd43-232">
          <mxGeometry width="50" height="50" relative="1" as="geometry">
            <mxPoint x="440" y="680" as="sourcePoint" />
            <mxPoint x="440" y="330" as="targetPoint" />
            <Array as="points" />
          </mxGeometry>
        </mxCell>
        <mxCell id="94_enlfXILWbWIfnMd43-232" value="" style="html=1;points=[[0,0,0,0,5],[0,1,0,0,-5],[1,0,0,0,5],[1,1,0,0,-5]];perimeter=orthogonalPerimeter;outlineConnect=0;targetShapes=umlLifeline;portConstraint=eastwest;newEdgeStyle={&quot;curved&quot;:0,&quot;rounded&quot;:0};" vertex="1" parent="1">
          <mxGeometry x="435" y="380" width="10" height="30" as="geometry" />
        </mxCell>
        <mxCell id="94_enlfXILWbWIfnMd43-234" value="" style="endArrow=classic;html=1;rounded=0;entryX=1;entryY=0;entryDx=0;entryDy=5;entryPerimeter=0;" edge="1" parent="1" target="94_enlfXILWbWIfnMd43-222">
          <mxGeometry width="50" height="50" relative="1" as="geometry">
            <mxPoint x="440" y="315" as="sourcePoint" />
            <mxPoint x="182.5" y="320" as="targetPoint" />
          </mxGeometry>
        </mxCell>
        <mxCell id="94_enlfXILWbWIfnMd43-237" value="" style="html=1;verticalAlign=bottom;endArrow=open;dashed=1;endSize=8;curved=0;rounded=0;fontSize=12;entryX=1;entryY=0;entryDx=0;entryDy=5;entryPerimeter=0;align=left;" edge="1" parent="1">
          <mxGeometry x="0.0526" relative="1" as="geometry">
            <mxPoint x="440" y="900" as="sourcePoint" />
            <mxPoint x="185" y="900" as="targetPoint" />
            <mxPoint as="offset" />
          </mxGeometry>
        </mxCell>
        <mxCell id="94_enlfXILWbWIfnMd43-241" value="" style="html=1;verticalAlign=bottom;endArrow=open;endSize=8;curved=0;rounded=0;fontSize=12;entryX=1;entryY=0;entryDx=0;entryDy=5;entryPerimeter=0;align=left;dashed=1;" edge="1" parent="1" target="WivK-WyK2wc_ODXAfpbZ-16">
          <mxGeometry x="0.0526" relative="1" as="geometry">
            <mxPoint x="440" y="815" as="sourcePoint" />
            <mxPoint x="190" y="820" as="targetPoint" />
            <mxPoint as="offset" />
          </mxGeometry>
        </mxCell>
        <mxCell id="94_enlfXILWbWIfnMd43-242" value="12. Mostrar mensaje de error" style="text;strokeColor=none;fillColor=none;align=center;verticalAlign=middle;spacingLeft=4;spacingRight=4;overflow=hidden;points=[[0,0.5],[1,0.5]];portConstraint=eastwest;rotatable=0;whiteSpace=wrap;html=1;" vertex="1" parent="1">
          <mxGeometry x="225" y="780" width="145" height="30" as="geometry" />
        </mxCell>
        <mxCell id="94_enlfXILWbWIfnMd43-243" value="" style="endArrow=none;dashed=1;html=1;rounded=0;entryX=0.5;entryY=1;entryDx=0;entryDy=0;" edge="1" parent="1" target="94_enlfXILWbWIfnMd43-222">
          <mxGeometry width="50" height="50" relative="1" as="geometry">
            <mxPoint x="180" y="390" as="sourcePoint" />
            <mxPoint x="180" y="280" as="targetPoint" />
            <Array as="points" />
          </mxGeometry>
        </mxCell>
        <mxCell id="94_enlfXILWbWIfnMd43-222" value="" style="html=1;points=[[0,0,0,0,5],[0,1,0,0,-5],[1,0,0,0,5],[1,1,0,0,-5]];perimeter=orthogonalPerimeter;outlineConnect=0;targetShapes=umlLifeline;portConstraint=eastwest;newEdgeStyle={&quot;curved&quot;:0,&quot;rounded&quot;:0};" vertex="1" parent="1">
          <mxGeometry x="175" y="310" width="10" height="30" as="geometry" />
        </mxCell>
        <mxCell id="94_enlfXILWbWIfnMd43-244" value="" style="endArrow=classic;html=1;rounded=0;" edge="1" parent="1">
          <mxGeometry width="50" height="50" relative="1" as="geometry">
            <mxPoint x="230" y="380" as="sourcePoint" />
            <mxPoint x="439.5" y="380" as="targetPoint" />
            <Array as="points">
              <mxPoint x="190" y="380" />
              <mxPoint x="249.5" y="380" />
            </Array>
          </mxGeometry>
        </mxCell>
        <mxCell id="94_enlfXILWbWIfnMd43-245" value="" style="endArrow=classic;html=1;rounded=0;" edge="1" parent="1">
          <mxGeometry width="50" height="50" relative="1" as="geometry">
            <mxPoint x="450" y="430" as="sourcePoint" />
            <mxPoint x="695" y="430" as="targetPoint" />
            <Array as="points">
              <mxPoint x="465" y="430" />
              <mxPoint x="505" y="430" />
            </Array>
          </mxGeometry>
        </mxCell>
        <mxCell id="94_enlfXILWbWIfnMd43-246" value="6. Obtener comentarios" style="text;strokeColor=none;fillColor=none;align=center;verticalAlign=middle;spacingLeft=4;spacingRight=4;overflow=hidden;points=[[0,0.5],[1,0.5]];portConstraint=eastwest;rotatable=0;whiteSpace=wrap;html=1;" vertex="1" parent="1">
          <mxGeometry x="500" y="400" width="140" height="30" as="geometry" />
        </mxCell>
        <mxCell id="94_enlfXILWbWIfnMd43-249" value="" style="endArrow=none;dashed=1;html=1;rounded=0;entryX=0.5;entryY=1;entryDx=0;entryDy=0;exitX=0.5;exitY=0;exitDx=0;exitDy=0;" edge="1" parent="1" source="WivK-WyK2wc_ODXAfpbZ-22" target="94_enlfXILWbWIfnMd43-247">
          <mxGeometry width="50" height="50" relative="1" as="geometry">
            <mxPoint x="700" y="1030" as="sourcePoint" />
            <mxPoint x="700" y="370" as="targetPoint" />
            <Array as="points" />
          </mxGeometry>
        </mxCell>
        <mxCell id="94_enlfXILWbWIfnMd43-252" value="" style="endArrow=none;dashed=1;html=1;rounded=0;entryX=0.5;entryY=1;entryDx=0;entryDy=0;exitX=0.5;exitY=0;exitDx=0;exitDy=0;" edge="1" parent="1" source="WivK-WyK2wc_ODXAfpbZ-21" target="94_enlfXILWbWIfnMd43-250">
          <mxGeometry width="50" height="50" relative="1" as="geometry">
            <mxPoint x="440" y="1030" as="sourcePoint" />
            <mxPoint x="440" y="410" as="targetPoint" />
            <Array as="points" />
          </mxGeometry>
        </mxCell>
        <mxCell id="94_enlfXILWbWIfnMd43-250" value="" style="html=1;points=[[0,0,0,0,5],[0,1,0,0,-5],[1,0,0,0,5],[1,1,0,0,-5]];perimeter=orthogonalPerimeter;outlineConnect=0;targetShapes=umlLifeline;portConstraint=eastwest;newEdgeStyle={&quot;curved&quot;:0,&quot;rounded&quot;:0};" vertex="1" parent="1">
          <mxGeometry x="435" y="480" width="10" height="30" as="geometry" />
        </mxCell>
        <mxCell id="94_enlfXILWbWIfnMd43-253" value="" style="endArrow=classic;html=1;rounded=0;" edge="1" parent="1">
          <mxGeometry width="50" height="50" relative="1" as="geometry">
            <mxPoint x="315" y="540" as="sourcePoint" />
            <mxPoint x="185" y="540" as="targetPoint" />
            <Array as="points">
              <mxPoint x="430" y="540" />
            </Array>
          </mxGeometry>
        </mxCell>
        <mxCell id="94_enlfXILWbWIfnMd43-256" value="" style="endArrow=none;dashed=1;html=1;rounded=0;entryX=0.5;entryY=1;entryDx=0;entryDy=0;exitX=0.5;exitY=0;exitDx=0;exitDy=0;" edge="1" parent="1" source="WivK-WyK2wc_ODXAfpbZ-20" target="94_enlfXILWbWIfnMd43-254">
          <mxGeometry width="50" height="50" relative="1" as="geometry">
            <mxPoint x="180" y="1040" as="sourcePoint" />
            <mxPoint x="180" y="360" as="targetPoint" />
            <Array as="points" />
          </mxGeometry>
        </mxCell>
        <mxCell id="94_enlfXILWbWIfnMd43-254" value="" style="html=1;points=[[0,0,0,0,5],[0,1,0,0,-5],[1,0,0,0,5],[1,1,0,0,-5]];perimeter=orthogonalPerimeter;outlineConnect=0;targetShapes=umlLifeline;portConstraint=eastwest;newEdgeStyle={&quot;curved&quot;:0,&quot;rounded&quot;:0};" vertex="1" parent="1">
          <mxGeometry x="175" y="530" width="10" height="30" as="geometry" />
        </mxCell>
        <mxCell id="94_enlfXILWbWIfnMd43-262" value="13. Mostrar confirmación y actualizar vista" style="text;strokeColor=none;fillColor=none;align=center;verticalAlign=middle;spacingLeft=4;spacingRight=4;overflow=hidden;points=[[0,0.5],[1,0.5]];portConstraint=eastwest;rotatable=0;whiteSpace=wrap;html=1;" vertex="1" parent="1">
          <mxGeometry x="210" y="870" width="190" height="30" as="geometry" />
        </mxCell>
        <mxCell id="94_enlfXILWbWIfnMd43-263" value="alt" style="shape=umlFrame;whiteSpace=wrap;html=1;pointerEvents=0;" vertex="1" parent="1">
          <mxGeometry x="150" y="730" width="580" height="240" as="geometry" />
        </mxCell>
        <mxCell id="WivK-WyK2wc_ODXAfpbZ-2" value="" style="endArrow=none;dashed=1;html=1;rounded=0;entryX=0.5;entryY=1;entryDx=0;entryDy=0;" edge="1" parent="1" source="94_enlfXILWbWIfnMd43-146" target="WivK-WyK2wc_ODXAfpbZ-1">
          <mxGeometry width="50" height="50" relative="1" as="geometry">
            <mxPoint x="699" y="340" as="sourcePoint" />
            <mxPoint x="699" y="120" as="targetPoint" />
            <Array as="points" />
          </mxGeometry>
        </mxCell>
        <mxCell id="WivK-WyK2wc_ODXAfpbZ-1" value="" style="html=1;points=[[0,0,0,0,5],[0,1,0,0,-5],[1,0,0,0,5],[1,1,0,0,-5]];perimeter=orthogonalPerimeter;outlineConnect=0;targetShapes=umlLifeline;portConstraint=eastwest;newEdgeStyle={&quot;curved&quot;:0,&quot;rounded&quot;:0};" vertex="1" parent="1">
          <mxGeometry x="695" y="220" width="10" height="30" as="geometry" />
        </mxCell>
        <mxCell id="WivK-WyK2wc_ODXAfpbZ-4" value="" style="endArrow=none;dashed=1;html=1;rounded=0;entryX=0.5;entryY=1;entryDx=0;entryDy=0;" edge="1" parent="1" target="WivK-WyK2wc_ODXAfpbZ-3">
          <mxGeometry width="50" height="50" relative="1" as="geometry">
            <mxPoint x="440" y="310" as="sourcePoint" />
            <mxPoint x="440" y="210" as="targetPoint" />
            <Array as="points" />
          </mxGeometry>
        </mxCell>
        <mxCell id="WivK-WyK2wc_ODXAfpbZ-3" value="" style="html=1;points=[[0,0,0,0,5],[0,1,0,0,-5],[1,0,0,0,5],[1,1,0,0,-5]];perimeter=orthogonalPerimeter;outlineConnect=0;targetShapes=umlLifeline;portConstraint=eastwest;newEdgeStyle={&quot;curved&quot;:0,&quot;rounded&quot;:0};" vertex="1" parent="1">
          <mxGeometry x="435" y="280" width="10" height="30" as="geometry" />
        </mxCell>
        <mxCell id="94_enlfXILWbWIfnMd43-236" value="5. Seleccionar evento" style="text;strokeColor=none;fillColor=none;align=left;verticalAlign=middle;spacingLeft=4;spacingRight=4;overflow=hidden;points=[[0,0.5],[1,0.5]];portConstraint=eastwest;rotatable=0;whiteSpace=wrap;html=1;" vertex="1" parent="1">
          <mxGeometry x="240" y="350" width="130" height="30" as="geometry" />
        </mxCell>
        <mxCell id="WivK-WyK2wc_ODXAfpbZ-6" value="" style="endArrow=none;dashed=1;html=1;rounded=0;entryX=0.5;entryY=1;entryDx=0;entryDy=0;" edge="1" parent="1" target="94_enlfXILWbWIfnMd43-247">
          <mxGeometry width="50" height="50" relative="1" as="geometry">
            <mxPoint x="700" y="450" as="sourcePoint" />
            <mxPoint x="700" y="430" as="targetPoint" />
            <Array as="points" />
          </mxGeometry>
        </mxCell>
        <mxCell id="94_enlfXILWbWIfnMd43-247" value="" style="html=1;points=[[0,0,0,0,5],[0,1,0,0,-5],[1,0,0,0,5],[1,1,0,0,-5]];perimeter=orthogonalPerimeter;outlineConnect=0;targetShapes=umlLifeline;portConstraint=eastwest;newEdgeStyle={&quot;curved&quot;:0,&quot;rounded&quot;:0};" vertex="1" parent="1">
          <mxGeometry x="695" y="420" width="10" height="30" as="geometry" />
        </mxCell>
        <mxCell id="WivK-WyK2wc_ODXAfpbZ-7" value="" style="html=1;points=[[0,0,0,0,5],[0,1,0,0,-5],[1,0,0,0,5],[1,1,0,0,-5]];perimeter=orthogonalPerimeter;outlineConnect=0;targetShapes=umlLifeline;portConstraint=eastwest;newEdgeStyle={&quot;curved&quot;:0,&quot;rounded&quot;:0};" vertex="1" parent="1">
          <mxGeometry x="435" y="590" width="10" height="30" as="geometry" />
        </mxCell>
        <mxCell id="WivK-WyK2wc_ODXAfpbZ-8" value="" style="endArrow=classic;html=1;rounded=0;" edge="1" parent="1">
          <mxGeometry width="50" height="50" relative="1" as="geometry">
            <mxPoint x="230" y="590" as="sourcePoint" />
            <mxPoint x="439.5" y="590" as="targetPoint" />
            <Array as="points">
              <mxPoint x="190" y="590" />
              <mxPoint x="249.5" y="590" />
            </Array>
          </mxGeometry>
        </mxCell>
        <mxCell id="WivK-WyK2wc_ODXAfpbZ-9" value="9. Clic en &quot;Publicar comentario&lt;span style=&quot;color: rgba(0, 0, 0, 0); font-family: monospace; font-size: 0px; text-align: start; text-wrap-mode: nowrap;&quot;&gt;%3CmxGraphModel%3E%3Croot%3E%3CmxCell%20id%3D%220%22%2F%3E%3CmxCell%20id%3D%221%22%20parent%3D%220%22%2F%3E%3CmxCell%20id%3D%222%22%20value%3D%22%22%20style%3D%22html%3D1%3Bpoints%3D%5B%5B0%2C0%2C0%2C0%2C5%5D%2C%5B0%2C1%2C0%2C0%2C-5%5D%2C%5B1%2C0%2C0%2C0%2C5%5D%2C%5B1%2C1%2C0%2C0%2C-5%5D%5D%3Bperimeter%3DorthogonalPerimeter%3BoutlineConnect%3D0%3BtargetShapes%3DumlLifeline%3BportConstraint%3Deastwest%3BnewEdgeStyle%3D%7B%26quot%3Bcurved%26quot%3B%3A0%2C%26quot%3Brounded%26quot%3B%3A0%7D%3B%22%20vertex%3D%221%22%20parent%3D%221%22%3E%3CmxGeometry%20x%3D%22435%22%20y%3D%22380%22%20width%3D%2210%22%20height%3D%2230%22%20as%3D%22geometry%22%2F%3E%3C%2FmxCell%3E%3CmxCell%20id%3D%223%22%20value%3D%22%22%20style%3D%22endArrow%3Dclassic%3Bhtml%3D1%3Brounded%3D0%3B%22%20edge%3D%221%22%20parent%3D%221%22%3E%3CmxGeometry%20width%3D%2250%22%20height%3D%2250%22%20relative%3D%221%22%20as%3D%22geometry%22%3E%3CmxPoint%20x%3D%22230%22%20y%3D%22380%22%20as%3D%22sourcePoint%22%2F%3E%3CmxPoint%20x%3D%22439.5%22%20y%3D%22380%22%20as%3D%22targetPoint%22%2F%3E%3CArray%20as%3D%22points%22%3E%3CmxPoint%20x%3D%22190%22%20y%3D%22380%22%2F%3E%3CmxPoint%20x%3D%22249.5%22%20y%3D%22380%22%2F%3E%3C%2FArray%3E%3C%2FmxGeometry%3E%3C%2FmxCell%3E%3CmxCell%20id%3D%224%22%20value%3D%225.%20Seleccionar%20evento%22%20style%3D%22text%3BstrokeColor%3Dnone%3BfillColor%3Dnone%3Balign%3Dleft%3BverticalAlign%3Dmiddle%3BspacingLeft%3D4%3BspacingRight%3D4%3Boverflow%3Dhidden%3Bpoints%3D%5B%5B0%2C0.5%5D%2C%5B1%2C0.5%5D%5D%3BportConstraint%3Deastwest%3Brotatable%3D0%3BwhiteSpace%3Dwrap%3Bhtml%3D1%3B%22%20vertex%3D%221%22%20parent%3D%221%22%3E%3CmxGeometry%20x%3D%22240%22%20y%3D%22350%22%20width%3D%22130%22%20height%3D%2230%22%20as%3D%22geometry%22%2F%3E%3C%2FmxCell%3E%3C%2Froot%3E%3C%2FmxGraphModel%3E&lt;/span&gt;&quot;" style="text;strokeColor=none;fillColor=none;align=center;verticalAlign=middle;spacingLeft=4;spacingRight=4;overflow=hidden;points=[[0,0.5],[1,0.5]];portConstraint=eastwest;rotatable=0;whiteSpace=wrap;html=1;" vertex="1" parent="1">
          <mxGeometry x="240" y="560" width="130" height="30" as="geometry" />
        </mxCell>
        <mxCell id="WivK-WyK2wc_ODXAfpbZ-10" value="" style="html=1;points=[[0,0,0,0,5],[0,1,0,0,-5],[1,0,0,0,5],[1,1,0,0,-5]];perimeter=orthogonalPerimeter;outlineConnect=0;targetShapes=umlLifeline;portConstraint=eastwest;newEdgeStyle={&quot;curved&quot;:0,&quot;rounded&quot;:0};" vertex="1" parent="1">
          <mxGeometry x="692.5" y="630" width="10" height="30" as="geometry" />
        </mxCell>
        <mxCell id="WivK-WyK2wc_ODXAfpbZ-11" value="" style="endArrow=classic;html=1;rounded=0;" edge="1" parent="1">
          <mxGeometry width="50" height="50" relative="1" as="geometry">
            <mxPoint x="487.5" y="630" as="sourcePoint" />
            <mxPoint x="697" y="630" as="targetPoint" />
            <Array as="points">
              <mxPoint x="447.5" y="630" />
              <mxPoint x="507" y="630" />
            </Array>
          </mxGeometry>
        </mxCell>
        <mxCell id="WivK-WyK2wc_ODXAfpbZ-12" value="10. Actualizar estado del comentario" style="text;strokeColor=none;fillColor=none;align=center;verticalAlign=middle;spacingLeft=4;spacingRight=4;overflow=hidden;points=[[0,0.5],[1,0.5]];portConstraint=eastwest;rotatable=0;whiteSpace=wrap;html=1;" vertex="1" parent="1">
          <mxGeometry x="497.5" y="600" width="130" height="30" as="geometry" />
        </mxCell>
        <mxCell id="WivK-WyK2wc_ODXAfpbZ-13" value="" style="endArrow=classic;html=1;rounded=0;" edge="1" parent="1">
          <mxGeometry width="50" height="50" relative="1" as="geometry">
            <mxPoint x="575" y="690" as="sourcePoint" />
            <mxPoint x="445" y="690" as="targetPoint" />
            <Array as="points">
              <mxPoint x="700" y="690" />
            </Array>
          </mxGeometry>
        </mxCell>
        <mxCell id="WivK-WyK2wc_ODXAfpbZ-14" value="11. Confirmación" style="text;strokeColor=none;fillColor=none;align=center;verticalAlign=middle;spacingLeft=4;spacingRight=4;overflow=hidden;points=[[0,0.5],[1,0.5]];portConstraint=eastwest;rotatable=0;whiteSpace=wrap;html=1;" vertex="1" parent="1">
          <mxGeometry x="517.5" y="660" width="115" height="30" as="geometry" />
        </mxCell>
        <mxCell id="WivK-WyK2wc_ODXAfpbZ-15" value="" style="html=1;points=[[0,0,0,0,5],[0,1,0,0,-5],[1,0,0,0,5],[1,1,0,0,-5]];perimeter=orthogonalPerimeter;outlineConnect=0;targetShapes=umlLifeline;portConstraint=eastwest;newEdgeStyle={&quot;curved&quot;:0,&quot;rounded&quot;:0};" vertex="1" parent="1">
          <mxGeometry x="435" y="680" width="10" height="30" as="geometry" />
        </mxCell>
        <mxCell id="WivK-WyK2wc_ODXAfpbZ-16" value="" style="html=1;points=[[0,0,0,0,5],[0,1,0,0,-5],[1,0,0,0,5],[1,1,0,0,-5]];perimeter=orthogonalPerimeter;outlineConnect=0;targetShapes=umlLifeline;portConstraint=eastwest;newEdgeStyle={&quot;curved&quot;:0,&quot;rounded&quot;:0};" vertex="1" parent="1">
          <mxGeometry x="175" y="810" width="10" height="30" as="geometry" />
        </mxCell>
        <mxCell id="WivK-WyK2wc_ODXAfpbZ-17" value="" style="html=1;points=[[0,0,0,0,5],[0,1,0,0,-5],[1,0,0,0,5],[1,1,0,0,-5]];perimeter=orthogonalPerimeter;outlineConnect=0;targetShapes=umlLifeline;portConstraint=eastwest;newEdgeStyle={&quot;curved&quot;:0,&quot;rounded&quot;:0};" vertex="1" parent="1">
          <mxGeometry x="175" y="890" width="10" height="30" as="geometry" />
        </mxCell>
        <mxCell id="WivK-WyK2wc_ODXAfpbZ-18" value="[No se publicó el comentario]" style="text;html=1;align=center;verticalAlign=middle;whiteSpace=wrap;rounded=0;" vertex="1" parent="1">
          <mxGeometry x="352" y="740" width="176" height="30" as="geometry" />
        </mxCell>
        <mxCell id="WivK-WyK2wc_ODXAfpbZ-19" value="[Se publicó el mensaje]" style="text;html=1;align=center;verticalAlign=middle;whiteSpace=wrap;rounded=0;" vertex="1" parent="1">
          <mxGeometry x="352" y="830" width="176" height="30" as="geometry" />
        </mxCell>
        <mxCell id="WivK-WyK2wc_ODXAfpbZ-20" value="" style="rounded=0;whiteSpace=wrap;html=1;" vertex="1" parent="1">
          <mxGeometry x="120" y="1030" width="120" height="60" as="geometry" />
        </mxCell>
        <mxCell id="WivK-WyK2wc_ODXAfpbZ-21" value="" style="rounded=0;whiteSpace=wrap;html=1;" vertex="1" parent="1">
          <mxGeometry x="380" y="1030" width="120" height="60" as="geometry" />
        </mxCell>
        <mxCell id="WivK-WyK2wc_ODXAfpbZ-22" value="" style="rounded=0;whiteSpace=wrap;html=1;" vertex="1" parent="1">
          <mxGeometry x="640" y="1030" width="120" height="60" as="geometry" />
        </mxCell>
        <mxCell id="WivK-WyK2wc_ODXAfpbZ-23" value="Administrador" style="text;strokeColor=none;fillColor=none;align=left;verticalAlign=middle;spacingLeft=4;spacingRight=4;overflow=hidden;points=[[0,0.5],[1,0.5]];portConstraint=eastwest;rotatable=0;whiteSpace=wrap;html=1;" vertex="1" parent="1">
          <mxGeometry x="140" y="1045" width="150" height="30" as="geometry" />
        </mxCell>
        <mxCell id="WivK-WyK2wc_ODXAfpbZ-24" value="&lt;font style=&quot;vertical-align: inherit;&quot;&gt;&lt;font style=&quot;vertical-align: inherit;&quot;&gt;Sistema&lt;/font&gt;&lt;/font&gt;" style="text;strokeColor=none;fillColor=none;align=left;verticalAlign=middle;spacingLeft=4;spacingRight=4;overflow=hidden;points=[[0,0.5],[1,0.5]];portConstraint=eastwest;rotatable=0;whiteSpace=wrap;html=1;" vertex="1" parent="1">
          <mxGeometry x="412" y="1045" width="56" height="30" as="geometry" />
        </mxCell>
        <mxCell id="WivK-WyK2wc_ODXAfpbZ-25" value="&lt;font style=&quot;vertical-align: inherit;&quot;&gt;&lt;font style=&quot;vertical-align: inherit;&quot;&gt;Base de Datos&lt;/font&gt;&lt;/font&gt;" style="text;strokeColor=none;fillColor=none;align=left;verticalAlign=middle;spacingLeft=4;spacingRight=4;overflow=hidden;points=[[0,0.5],[1,0.5]];portConstraint=eastwest;rotatable=0;whiteSpace=wrap;html=1;" vertex="1" parent="1">
          <mxGeometry x="650" y="1045" width="90" height="30" as="geometry" />
        </mxCell>
        <mxCell id="JuV2p6Wf2Mw7E1XFytZr-1" value="SELECCIONAR COMENTARIOS PÚBLICOS" style="rounded=0;whiteSpace=wrap;html=1;" vertex="1" parent="1">
          <mxGeometry x="140" y="-80" width="570" height="60" as="geometry" />
        </mxCell>
      </root>
    </mxGraphModel>
  </diagram>
</mxfile>
